# File created by Blade
# Date/Time:  Tue Apr 07 21:12:45 2015
#---------------------------------------------------------
:version 1.10
:name HOM
:units
  mass 1.0
  length 1.000000
  angle deg
:documentation
     Acclaim Skeleton File
:root
   axis xyz
   order TX TY TZ RX RY RZ
   position 0.000000 0.000000 0.000000
   orientation 0 0 0
:bonedata
   begin
      id 1
      name Spine_dum
      direction 0.000000 1.000000 0.000000
      length 4.885285
      axis 0.0 0.0 0.0 xyz
   end
   begin
      id 2
      name LeftUpLeg_dum
      direction 1.000000 0.000000 0.000000
      length 2.672193
      axis 0.0 0.0 0.0 xyz
   end
   begin
      id 3
      name RightUpLeg_dum
      direction -1.000000 0.000000 0.000000
      length 2.672193
      axis 0.0 0.0 0.0 xyz
   end
   begin
      id 4
      name Spine
      direction 0.000000 1.000000 0.000000
      length 0.000000
      axis 0.0 0.0 0.0 xyz
      dof rx ry rz
   end
   begin
      id 5
      name Spine_dum1
      direction 0.000000 1.000000 0.000000
      length 16.494159
      axis 0.0 0.0 0.0 xyz
   end
   begin
      id 6
      name Spine_dum2
      direction 0.000000 1.000000 0.000000
      length 10.663448
      axis 0.0 0.0 0.0 xyz
   end
   begin
      id 7
      name Spine_dum3
      direction 0.000000 1.000000 0.000000
      length 10.663448
      axis 0.0 0.0 0.0 xyz
   end
   begin
      id 8
      name Head
      direction 0.000000 1.000000 0.000000
      length 4.527550
      axis 0.0 0.0 0.0 xyz
      dof rx ry rz
   end
   begin
      id 9
      name LeftShoulder
      direction 1.000000 0.000000 0.000000
      length 7.531907
      axis 0.0 0.0 -90.0 xyz
      dof rx ry rz
   end
   begin
      id 10
      name LeftArm
      direction 1.000000 0.000000 0.000000
      length 10.229199
      axis 0.0 0.0 -90.0 xyz
      dof rx ry rz
   end
   begin
      id 11
      name LeftForeArm
      direction 1.000000 0.000000 0.000000
      length 8.673495
      axis 0.0 0.0 -90.0 xyz
      dof ry rz rx
   end
   begin
      id 12
      name LeftHand
      direction 0.000000 0.000000 0.000000
      length 0.000000
      axis 0.0 0.0 -90.0 xyz
      dof rx ry rz
   end
   begin
      id 13
      name LeftHand_dum1
      direction 0.000000 0.000000 0.000000
      length 0.000000
      axis 0.0 0.0 -90.0 xyz
   end
   begin
      id 14
      name LeftHand_dum2
      direction 1.000000 0.000000 0.000000
      length 3.937000
      axis 0.0 0.0 -90.0 xyz
   end
   begin
      id 15
      name LeftHandThumb1
      direction 0.000000 0.000000 1.000000
      length 3.937000
      axis 0.0 0.0 -90.0 xyz
      dof rx rz ry
   end
   begin
      id 16
      name RightShoulder
      direction -1.000000 0.000000 0.000000
      length 7.531907
      axis 0.0 0.0 90.0 xyz
      dof rx ry rz
   end
   begin
      id 17
      name RightArm
      direction -1.000000 0.000000 0.000000
      length 10.229199
      axis 0.0 0.0 90.0 xyz
      dof rx ry rz
   end
   begin
      id 18
      name RightForeArm
      direction -1.000000 0.000000 0.000000
      length 8.673495
      axis 0.0 0.0 90.0 xyz
      dof ry rz rx
   end
   begin
      id 19
      name RightHand
      direction 0.000000 0.000000 0.000000
      length 0.000000
      axis 0.0 0.0 90.0 xyz
      dof rx ry rz
   end
   begin
      id 20
      name RightHand_dum1
      direction 0.000000 0.000000 0.000000
      length 0.000000
      axis 0.0 0.0 90.0 xyz
   end
   begin
      id 21
      name RightHand_dum2
      direction -1.000000 0.000000 0.000000
      length 3.937000
      axis 0.0 0.0 90.0 xyz
   end
   begin
      id 22
      name RightHandThumb1
      direction 0.000000 0.000000 1.000000
      length 3.937000
      axis 0.0 0.0 90.0 xyz
      dof rx rz ry
   end
   begin
      id 23
      name LeftUpLeg
      direction 0.000000 -1.000000 0.000000
      length 16.263388
      axis 0.0 0.0 0.0 xyz
      dof rx ry rz
   end
   begin
      id 24
      name LeftLeg
      direction 0.000000 -1.000000 0.000000
      length 14.328163
      axis 0.0 0.0 0.0 xyz
      dof rx ry rz
   end
   begin
      id 25
      name LeftFoot
      direction 0.000000 -0.258819 0.965926
      length 5.031290
      axis 15.0 0.0 0.0 xyz
      dof rx ry rz
   end
   begin
      id 26
      name LeftToeBase
      direction 0.000000 0.000000 1.000000
      length 2.952750
      axis 0.0 0.0 0.0 xyz
      dof rx ry rz
   end
   begin
      id 27
      name RightUpLeg
      direction 0.000000 -1.000000 0.000000
      length 16.263388
      axis 0.0 0.0 0.0 xyz
      dof rx ry rz
   end
   begin
      id 28
      name RightLeg
      direction 0.000000 -1.000000 0.000000
      length 14.328163
      axis 0.0 0.0 0.0 xyz
      dof rx ry rz
   end
   begin
      id 29
      name RightFoot
      direction 0.000000 -0.258819 0.965926
      length 5.031290
      axis 15.0 0.0 0.0 xyz
      dof rx ry rz
   end
   begin
      id 30
      name RightToeBase
      direction 0.000000 0.000000 1.000000
      length 2.952750
      axis 0.0 0.0 0.0 xyz
      dof rx ry rz
   end
:hierarchy
   begin
      root Spine_dum LeftUpLeg_dum RightUpLeg_dum
      Spine_dum Spine
      LeftUpLeg_dum LeftUpLeg
      RightUpLeg_dum RightUpLeg
      Spine Spine_dum1 Spine_dum2 Spine_dum3
      Spine_dum1 Head
      Spine_dum2 LeftShoulder
      Spine_dum3 RightShoulder
      LeftShoulder LeftArm
      LeftArm LeftForeArm
      LeftForeArm LeftHand
      LeftHand LeftHand_dum1 LeftHand_dum2
      LeftHand_dum1 LeftHandThumb1
      RightShoulder RightArm
      RightArm RightForeArm
      RightForeArm RightHand
      RightHand RightHand_dum1 RightHand_dum2
      RightHand_dum1 RightHandThumb1
      LeftUpLeg LeftLeg
      LeftLeg LeftFoot
      LeftFoot LeftToeBase
      RightUpLeg RightLeg
      RightLeg RightFoot
      RightFoot RightToeBase
   end

# File created by Blade
# Date/Time:  Tue Apr 07 21:12:38 2015
# Frame Rate: 120.000 fps
#------------------------------------------------------
:FULLY-SPECIFIED
:DEGREES
131
root 8.136404 31.752021 3.357747 5.547111 -27.004765 -0.929398
Spine 1.130499 -11.258572 0.567384
Head 33.140327 0.183348 5.279920
LeftShoulder -23.812996 50.002732 1.208489
LeftArm 52.099483 -3.424649 -86.638106
LeftForeArm 1.542712 0.000000 5.912362
LeftHand 5.833536 -0.000000 9.290676
LeftHandThumb1 -26.253704 0.000000 33.147579
RightShoulder -9.906983 -12.852899 -17.568816
RightArm 6.934148 0.479046 88.734761
RightForeArm 1.783970 -0.000000 6.971473
RightHand 5.764990 -0.000000 -2.201114
RightHandThumb1 -24.326973 -0.000000 -32.862282
LeftUpLeg -12.304399 -23.540896 21.069462
LeftLeg 23.596278 -0.000000 -0.000000
LeftFoot -5.413913 -2.503862 -27.145434
LeftToeBase -29.244617 -0.000000 0.000000
RightUpLeg -13.678113 12.005633 -15.509129
RightLeg 17.890533 -0.000000 -0.000000
RightFoot -9.240488 2.847198 10.905492
RightToeBase -12.916164 -0.000000 0.000000
132
root 8.434210 31.700454 3.452883 5.664030 -27.616191 -0.825499
Spine 1.069073 -11.283736 0.494666
Head 32.849298 -0.665024 5.324740
LeftShoulder -23.700487 49.982871 1.318506
LeftArm 52.192953 -3.046449 -86.240599
LeftForeArm 1.355497 -0.000000 6.023387
LeftHand 5.809435 -0.000000 9.321545
LeftHandThumb1 -26.253704 0.000000 33.147579
RightShoulder -9.978871 -12.847981 -17.443427
RightArm 6.870621 0.673911 88.549992
RightForeArm 1.859721 -0.000000 7.070819
RightHand 5.744906 -0.000000 -2.328610
RightHandThumb1 -24.326973 -0.000000 -32.862282
LeftUpLeg -12.102686 -23.434351 20.598089
LeftLeg 23.173473 -0.000000 -0.000000
LeftFoot -6.168327 -2.961445 -27.570636
LeftToeBase -29.693173 -0.000000 0.000000
RightUpLeg -14.104453 12.037575 -16.246009
RightLeg 17.764551 -0.000000 -0.000000
RightFoot -8.734734 2.960820 10.996012
RightToeBase -13.556010 -0.000000 0.000000
133
root 8.742414 31.649529 3.548868 5.739729 -28.246856 -0.711453
Spine 1.079838 -11.322229 0.405939
Head 32.505563 -1.550342 5.370678
LeftShoulder -23.605974 49.952087 1.408315
LeftArm 52.310066 -2.691694 -85.878311
LeftForeArm 1.258903 -0.000000 6.170295
LeftHand 5.866161 -0.000000 9.420170
LeftHandThumb1 -26.253704 0.000000 33.147579
RightShoulder -10.013967 -12.827663 -17.311561
RightArm 6.846248 0.906781 88.329247
RightForeArm 1.716059 0.000000 7.200699
RightHand 5.875885 -0.000000 -2.458361
RightHandThumb1 -24.326973 -0.000000 -32.862282
LeftUpLeg -11.887250 -23.138030 19.999700
LeftLeg 22.918333 -0.000000 -0.000000
LeftFoot -7.038095 -3.309794 -27.646177
LeftToeBase -29.508653 -0.000000 0.000000
RightUpLeg -14.517274 11.963331 -17.005304
RightLeg 17.631282 -0.000000 -0.000000
RightFoot -8.124699 3.308916 11.219856
RightToeBase -14.143913 -0.000000 0.000000
134
root 9.057198 31.599278 3.640893 5.880704 -28.949380 -0.618859
Spine 1.070877 -11.307188 0.342496
Head 32.114806 -2.599276 5.388571
LeftShoulder -23.640000 49.951178 1.382368
LeftArm 52.518917 -2.227995 -85.366380
LeftForeArm 1.083834 -0.000000 6.356815
LeftHand 5.866892 0.000000 9.663966
LeftHandThumb1 -26.253704 0.000000 33.147579
RightShoulder -10.109259 -12.781865 -17.188837
RightArm 6.853577 1.058121 88.087867
RightForeArm 1.660128 -0.000000 7.408759
RightHand 5.809272 -0.000000 -2.390288
RightHandThumb1 -24.326973 -0.000000 -32.862282
LeftUpLeg -11.833304 -22.343606 19.319911
LeftLeg 23.027892 -0.000000 -0.000000
LeftFoot -8.058179 -3.617446 -27.310215
LeftToeBase -28.680398 -0.000000 0.000000
RightUpLeg -14.996720 11.945836 -17.750039
RightLeg 17.429419 -0.000000 -0.000000
RightFoot -7.481951 3.498586 11.368048
RightToeBase -14.687008 -0.000000 0.000000
135
root 9.383667 31.554497 3.727724 6.034855 -29.688047 -0.474886
Spine 1.023564 -11.257672 0.211226
Head 31.762445 -3.443474 5.564073
LeftShoulder -23.466022 49.930750 1.544114
LeftArm 52.645788 -1.933236 -85.093538
LeftForeArm 0.979026 -0.000000 6.587597
LeftHand 6.021505 -0.000000 10.269253
LeftHandThumb1 -26.253704 0.000000 33.147579
RightShoulder -10.163680 -12.729763 -17.031977
RightArm 6.868381 1.265589 87.817972
RightForeArm 1.584300 0.000000 7.665504
RightHand 5.841115 0.000000 -2.595632
RightHandThumb1 -24.326973 -0.000000 -32.862282
LeftUpLeg -11.840961 -21.448616 18.551056
LeftLeg 23.165449 -0.000000 -0.000000
LeftFoot -9.174459 -3.792580 -27.029125
LeftToeBase -27.504537 -0.000000 0.000000
RightUpLeg -15.558012 11.978475 -18.588980
RightLeg 17.196130 -0.000000 -0.000000
RightFoot -6.688118 3.756688 11.718602
RightToeBase -15.326265 -0.000000 0.000000
136
root 9.718885 31.513584 3.812313 6.146442 -30.437487 -0.286433
Spine 1.026451 -11.216354 0.016230
Head 31.392878 -4.306507 5.819288
LeftShoulder -23.317290 49.955563 1.719138
LeftArm 52.896468 -1.810075 -85.106402
LeftForeArm 1.174398 0.000000 6.776358
LeftHand 5.982494 0.000000 9.803757
LeftHandThumb1 -26.253704 0.000000 33.147579
RightShoulder -10.179830 -12.713290 -16.851048
RightArm 6.938104 1.494127 87.543427
RightForeArm 1.475841 -0.000000 7.986107
RightHand 5.904802 -0.000000 -2.875499
RightHandThumb1 -24.326973 -0.000000 -32.862282
LeftUpLeg -11.866464 -20.442547 17.669117
LeftLeg 23.326847 -0.000000 -0.000000
LeftFoot -10.441042 -3.791638 -26.783942
LeftToeBase -26.238733 -0.000000 0.000000
RightUpLeg -16.080838 11.862620 -19.405994
RightLeg 16.898715 -0.000000 -0.000000
RightFoot -5.854566 3.872923 11.773708
RightToeBase -15.993677 -0.000000 0.000000
137
root 10.071027 31.479339 3.888827 6.278714 -31.297591 0.050250
Spine 0.972405 -11.122848 -0.311241
Head 30.997315 -5.107963 6.108506
LeftShoulder -23.150044 49.934353 1.880224
LeftArm 53.091350 -1.654607 -84.994217
LeftForeArm 1.368428 0.000000 7.043521
LeftHand 6.146125 -0.000000 10.431654
LeftHandThumb1 -26.253704 0.000000 33.147579
RightShoulder -10.205436 -12.613250 -16.662437
RightArm 6.985535 1.661800 87.263168
RightForeArm 1.406106 0.000000 8.391853
RightHand 5.997439 -0.000000 -3.400251
RightHandThumb1 -24.326973 -0.000000 -32.862282
LeftUpLeg -11.981817 -19.235862 16.607021
LeftLeg 23.407820 -0.000000 -0.000000
LeftFoot -11.732605 -3.534049 -26.436948
LeftToeBase -24.843916 -0.000000 0.000000
RightUpLeg -16.804411 11.833384 -20.439225
RightLeg 16.617420 -0.000000 -0.000000
RightFoot -4.862655 4.083069 12.139614
RightToeBase -16.659462 -0.000000 0.000000
138
root 10.420340 31.449459 3.955477 6.501141 -32.090910 0.305228
Spine 0.884790 -11.078061 -0.562860
Head 30.578037 -5.950343 6.430303
LeftShoulder -23.054094 49.978089 1.987256
LeftArm 53.346216 -1.095193 -84.276820
LeftForeArm 0.908046 0.000000 7.457150
LeftHand 5.951740 -0.000000 10.534046
LeftHandThumb1 -26.253704 0.000000 33.147579
RightShoulder -10.262127 -12.563435 -16.459555
RightArm 7.094291 1.810306 87.005122
RightForeArm 1.453218 -0.000000 8.858478
RightHand 6.369985 -0.000000 -4.125030
RightHandThumb1 -24.326973 -0.000000 -32.862282
LeftUpLeg -12.309334 -17.877174 15.636732
LeftLeg 23.683432 -0.000000 -0.000000
LeftFoot -12.968909 -3.247428 -25.902903
LeftToeBase -23.153004 -0.000000 0.000000
RightUpLeg -17.552424 11.679048 -21.344750
RightLeg 16.293952 -0.000000 -0.000000
RightFoot -3.839829 4.162097 12.364298
RightToeBase -17.127993 -0.000000 0.000000
139
root 10.777884 31.428947 4.013005 6.716939 -32.987017 0.638605
Spine 0.798958 -10.971437 -0.907366
Head 30.141824 -6.754561 6.762735
LeftShoulder -22.900078 49.982097 2.146897
LeftArm 53.573578 -0.657133 -83.671212
LeftForeArm 0.700397 -0.000000 7.899640
LeftHand 6.112313 -0.000000 10.564213
LeftHandThumb1 -26.253704 0.000000 33.147579
RightShoulder -10.296925 -12.462858 -16.235713
RightArm 7.177673 2.119754 86.794837
RightForeArm 1.121418 -0.000000 9.449064
RightHand 6.006534 -0.000000 -4.236131
RightHandThumb1 -24.326973 -0.000000 -32.862282
LeftUpLeg -12.641637 -16.601352 14.595578
LeftLeg 23.837611 -0.000000 -0.000000
LeftFoot -14.096503 -2.832980 -25.410808
LeftToeBase -21.438705 -0.000000 0.000000
RightUpLeg -18.410232 11.531055 -22.298058
RightLeg 15.960079 -0.000000 -0.000000
RightFoot -2.697974 4.119340 12.563942
RightToeBase -17.737216 -0.000000 0.000000
140
root 11.144107 31.416286 4.075851 6.852745 -33.929184 1.132218
Spine 0.694488 -10.830551 -1.380146
Head 29.730617 -7.526896 7.095038
LeftShoulder -22.787805 50.027214 2.261430
LeftArm 53.913407 -0.240096 -83.042589
LeftForeArm 0.848478 -0.000000 8.291450
LeftHand 6.089869 -0.000000 11.433160
LeftHandThumb1 -26.253704 0.000000 33.147579
RightShoulder -10.343842 -12.367697 -16.043849
RightArm 7.271244 2.343371 86.616934
RightForeArm 0.896437 -0.000000 10.059034
RightHand 6.433487 -0.000000 -5.096456
RightHandThumb1 -24.326973 -0.000000 -32.862282
LeftUpLeg -12.974604 -15.530002 13.424770
LeftLeg 23.892340 -0.000000 -0.000000
LeftFoot -15.041523 -2.247518 -24.753080
LeftToeBase -20.225933 -0.000000 0.000000
RightUpLeg -19.282517 11.263214 -23.343163
RightLeg 15.591494 -0.000000 -0.000000
RightFoot -1.480816 4.070951 12.566823
RightToeBase -18.357189 -0.000000 0.000000
141
root 11.515084 31.411318 4.129063 7.027135 -34.937407 1.677321
Spine 0.539898 -10.604196 -1.927353
Head 29.278552 -8.273647 7.528012
LeftShoulder -22.492938 50.046298 2.600020
LeftArm 54.151110 0.130102 -82.502040
LeftForeArm 0.858768 -0.000000 8.817167
LeftHand 6.120450 0.000000 10.801426
LeftHandThumb1 -26.253704 0.000000 33.147579
RightShoulder -10.419403 -12.272903 -15.799973
RightArm 7.343147 2.622604 86.463504
RightForeArm 0.541917 -0.000000 10.789319
RightHand 6.482991 0.000000 -5.510330
RightHandThumb1 -24.326973 -0.000000 -32.862282
LeftUpLeg -13.414978 -14.646757 12.284594
LeftLeg 23.919882 -0.000000 -0.000000
LeftFoot -15.829078 -1.563037 -23.977800
LeftToeBase -19.283633 -0.000000 0.000000
RightUpLeg -20.309420 10.921731 -24.374290
RightLeg 15.289137 -0.000000 -0.000000
RightFoot -0.203944 3.928714 12.540818
RightToeBase -18.891702 -0.000000 0.000000
142
root 11.878823 31.415727 4.185436 7.148938 -36.013481 2.225422
Spine 0.413590 -10.425479 -2.473920
Head 28.874875 -8.852436 7.898117
LeftShoulder -22.394321 50.094280 2.745367
LeftArm 54.431000 0.438570 -81.918028
LeftForeArm 1.361259 -0.000000 9.354483
LeftHand 6.224894 -0.000000 10.752701
LeftHandThumb1 -26.253704 0.000000 33.147579
RightShoulder -10.386541 -12.184361 -15.598929
RightArm 7.445340 2.839085 86.366612
RightForeArm 0.232784 -0.000000 11.559446
RightHand 6.238307 0.000000 -5.769335
RightHandThumb1 -24.326973 -0.000000 -32.862282
LeftUpLeg -13.786700 -14.095687 11.198182
LeftLeg 23.841132 -0.000000 -0.000000
LeftFoot -16.469399 -0.740740 -23.260051
LeftToeBase -18.806334 -0.000000 0.000000
RightUpLeg -21.312254 10.520986 -25.260691
RightLeg 14.992556 -0.000000 -0.000000
RightFoot 1.056066 3.497721 11.972083
RightToeBase -19.493969 -0.000000 0.000000
143
root 12.256465 31.426569 4.222830 7.334958 -36.953098 2.771211
Spine 0.297496 -10.336825 -2.967406
Head 28.347446 -9.451004 8.229811
LeftShoulder -22.164907 50.118867 2.996134
LeftArm 54.705833 0.824523 -81.249403
LeftForeArm 1.832765 -0.000000 10.028840
LeftHand 6.004175 -0.000000 11.601269
LeftHandThumb1 -26.253704 0.000000 33.147579
RightShoulder -10.431332 -12.029721 -15.440672
RightArm 7.551039 2.950610 86.323053
RightForeArm 0.040561 -0.000000 12.351908
RightHand 6.661118 -0.000000 -6.624380
RightHandThumb1 -24.326973 -0.000000 -32.862282
LeftUpLeg -14.389196 -14.089664 10.266160
LeftLeg 23.802841 -0.000000 -0.000000
LeftFoot -16.970626 0.172171 -22.713412
LeftToeBase -18.644269 -0.000000 0.000000
RightUpLeg -22.379619 9.955239 -26.093525
RightLeg 14.728779 -0.000000 -0.000000
RightFoot 2.400854 3.046022 11.642343
RightToeBase -19.815040 -0.000000 0.000000
